#!OML:ASF F:\VICON\USERDATA\INSTALL\rory3\rory3.ASF
:FULLY-SPECIFIED
:DEGREES
698
root 2.13782 18.7962 7.10875 18.8051 -10.5178 -4.30738
lowerback -2.12021 -0.212623 5.32059
upperback -7.04499 -0.0932487 2.83954
thorax -6.15852 -0.266972 -0.0075061
lowerneck -16.4401 -5.82613 -8.66708
upperneck 21.9684 -6.97714 4.56995
head 10.205 -3.43796 2.08106
rclavicle -4.96962e-015 -1.78906e-014
rhumerus -48.253 19.0965 -80.6232
rradius 67.2666
rwrist 13.0713
rhand -26.1421 -48.7365
rfingers 7.12502
rthumb 0.408469 -78.7158
lclavicle -4.96962e-015 -1.78906e-014
lhumerus -47.4387 -31.5261 85.7121
lradius 85.8661
lwrist 1.92748
lhand -33.7617 -47.6204
lfingers 7.12502
lthumb -6.94957 -17.7545
rfemur -77.1689 4.13201 18.5282
rtibia 106.851
rfoot -10.8114 -15.2098
rtoes -0.848018
lfemur -18.5289 -4.47194 -16.6105
ltibia 17.6149
lfoot 11.268 11.1354
ltoes -25.8248
699
root 2.0794 19.0009 7.17195 18.9768 -10.2865 -4.64831
lowerback -2.48589 -0.227717 6.15081
upperback -7.31346 -0.116818 2.89796
thorax -6.25274 -0.330792 -0.403654
lowerneck -16.2966 -5.66442 -8.55254
upperneck 22.5104 -6.74668 4.28271
head 10.3414 -3.36213 1.99799
rclavicle 1.92076e-014 -1.47101e-014
rhumerus -48.7958 19.9823 -81.0167
rradius 67.067
rwrist 12.267
rhand -25.9137 -48.3829
rfingers 7.12502
rthumb 0.629101 -78.3618
lclavicle 1.92076e-014 -1.47101e-014
lhumerus -48.2608 -31.6721 86.2672
lradius 85.6022
lwrist 2.9353
lhand -33.9735 -47.8903
lfingers 7.12502
lthumb -7.15397 -18.0313
rfemur -75.4245 3.98775 18.7535
rtibia 104.486
rfoot -10.557 -15.5058
rtoes 0.0595717
lfemur -18.6666 -5.87099 -15.5751
ltibia 17.375
lfoot 14.2647 13.1724
ltoes -21.2406
700
root 2.00773 19.1762 7.20301 19.2441 -10.1756 -4.46868
lowerback -3.32934 -0.156501 6.31325
upperback -7.34108 -0.100272 2.76918
thorax -5.80143 -0.32672 -0.635154
lowerneck -15.9497 -5.65406 -8.65788
upperneck 22.5748 -6.74337 4.29947
head 10.3037 -3.3741 2.02936
rclavicle 2.52457e-014 1.27222e-014
rhumerus -48.8949 20.3438 -81.2006
rradius 66.8298
rwrist 11.5349
rhand -25.6236 -47.46
rfingers 7.12502
rthumb 0.909283 -77.4378
lclavicle 2.52457e-014 1.27222e-014
lhumerus -48.3122 -32.0056 86.4471
lradius 85.1925
lwrist 3.74447
lhand -34.229 -48.037
lfingers 7.12502
lthumb -7.40058 -18.1864
rfemur -74.3516 3.75449 18.5467
rtibia 102.235
rfoot -10.0155 -15.5424
rtoes 1.22655
lfemur -19.3865 -7.12941 -15.0314
ltibia 17.6513
lfoot 16.9981 14.5776
ltoes -18.2716
701
root 1.93995 19.3429 7.24492 19.2486 -10.0921 -4.40162
lowerback -3.72788 -0.0983545 6.64495
upperback -7.37465 -0.0612335 2.66839
thorax -5.614 -0.325014 -0.926864
lowerneck -15.8237 -5.61134 -8.72987
upperneck 22.8551 -6.67684 4.25595
head 10.378 -3.35911 2.03844
rclavicle 2.01891e-014 -1.31198e-014
rhumerus -48.9782 20.8344 -81.4939
rradius 66.2705
rwrist 10.6552
rhand -25.4518 -46.8166
rfingers 7.12502
rthumb 1.07517 -76.7936
lclavicle 2.01891e-014 -1.31198e-014
lhumerus -48.5272 -32.2283 86.728
lradius 84.6969
lwrist 4.47641
lhand -34.7153 -47.7796
lfingers 7.12502
lthumb -7.86995 -17.9461
rfemur -72.7683 3.6457 18.4647
rtibia 99.79
rfoot -9.52772 -15.424
rtoes 2.06149
lfemur -19.5844 -7.27985 -14.7681
ltibia 17.9074
lfoot 19.5214 14.7543
ltoes -16.5969
702
root 1.86741 19.4965 7.26269 19.7097 -9.68398 -4.33065
lowerback -4.37007 -0.100825 6.96448
upperback -7.42391 -0.128048 2.57224
thorax -5.31299 -0.371991 -1.20703
lowerneck -16.2738 -5.61655 -8.71942
upperneck 23.3094 -6.64896 4.20533
head 10.6257 -3.34679 2.01342
rclavicle -1.40889e-014 3.97569e-015
rhumerus -48.634 21.3338 -81.7169
rradius 65.5951
rwrist 9.73782
rhand -25.2031 -46.9634
rfingers 7.12502
rthumb 1.31545 -76.9391
lclavicle -1.40889e-014 3.97569e-015
lhumerus -48.2719 -32.4862 86.7964
lradius 83.9643
lwrist 5.04484
lhand -35.0031 -46.7181
lfingers 7.12502
lthumb -8.1478 -16.8951
rfemur -71.8811 3.30236 18.5276
rtibia 97.3247
rfoot -8.72081 -15.1071
rtoes 2.74752
lfemur -20.6113 -6.25491 -14.641
ltibia 18.637
lfoot 21.2665 14.6002
ltoes -14.2767
703
root 1.79155 19.6362 7.27281 19.8583 -9.46957 -4.44915
lowerback -4.39817 -0.0674235 7.32401
upperback -7.53278 -0.0838122 2.54468
thorax -5.41848 -0.3754 -1.43318
lowerneck -16.4422 -5.63919 -8.86883
upperneck 23.8018 -6.65779 4.25603
head 10.8487 -3.35908 2.05195
rclavicle 7.57867e-016 -1.59028e-014
rhumerus -48.5027 21.7342 -81.9399
rradius 64.9946
rwrist 9.08789
rhand -24.7222 -47.1914
rfingers 7.12502
rthumb 1.77988 -77.1637
lclavicle 7.57867e-016 -1.59028e-014
lhumerus -48.2196 -32.5375 86.9932
lradius 83.0885
lwrist 5.14394
lhand -34.6696 -46.1452
lfingers 7.12502
lthumb -7.82586 -16.31
rfemur -70.6905 3.36011 18.7632
rtibia 94.725
rfoot -7.73695 -14.6471
rtoes 2.83473
lfemur -21.2599 -4.13336 -14.6981
ltibia 19.739
lfoot 21.8449 14.3884
ltoes -12.7478
704
root 1.71629 19.7392 7.27522 20.6574 -8.52969 -4.01155
lowerback -5.15397 -0.317683 7.22878
upperback -8.0577 -0.463973 2.50501
thorax -5.58411 -0.578336 -1.41818
lowerneck -16.3193 -5.58194 -8.91714
upperneck 24.3912 -6.55715 4.09289
head 11.0332 -3.3449 2.01983
rclavicle -2.38542e-014 -2.78299e-015
rhumerus -48.7045 22.1435 -82.2444
rradius 64.3702
rwrist 8.92927
rhand -24.1912 -47.3097
rfingers 7.12502
rthumb 2.29269 -77.2771
lclavicle -2.38542e-014 -2.78299e-015
lhumerus -48.6978 -32.2031 87.4196
lradius 82.3526
lwrist 4.93071
lhand -34.2638 -46.0949
lfingers 7.12502
lthumb -7.43425 -16.2455
rfemur -70.3762 2.42469 18.5733
rtibia 92.3173
rfoot -6.71405 -13.9017
rtoes 3.15197
lfemur -22.9323 -1.67413 -15.4431
ltibia 21.3146
lfoot 22.0632 12.2559
ltoes -13.7158
